<svg width="53" height="30" viewBox="0 0 53 30" fill="none" xmlns="http://www.w3.org/2000/svg">
<rect width="53" height="30" rx="10" fill="#5C52B5"/>
<path d="M14.7337 9.9H16.2937V19H14.4997V11.798L12.7837 12.279L12.3417 10.745L14.7337 9.9ZM22.9201 14.268C23.7607 14.7707 24.1811 15.503 24.1811 16.465C24.1811 17.3057 23.8864 17.9687 23.2971 18.454C22.7164 18.9393 21.9234 19.182 20.9181 19.182C19.9041 19.182 19.1067 18.9393 18.5261 18.454C17.9454 17.9687 17.6551 17.3057 17.6551 16.465C17.6551 15.503 18.0711 14.7707 18.9031 14.268C18.2704 13.8087 17.9541 13.1803 17.9541 12.383C17.9541 11.5423 18.2357 10.888 18.7991 10.42C19.3711 9.952 20.0774 9.718 20.9181 9.718C21.7587 9.718 22.4607 9.952 23.0241 10.42C23.5874 10.888 23.8691 11.5423 23.8691 12.383C23.8691 13.189 23.5527 13.8173 22.9201 14.268ZM21.7631 11.694C21.5464 11.5033 21.2647 11.408 20.9181 11.408C20.5714 11.408 20.2897 11.5033 20.0731 11.694C19.8564 11.8847 19.7481 12.1447 19.7481 12.474C19.7481 12.8033 19.8564 13.0677 20.0731 13.267C20.2897 13.4577 20.5714 13.553 20.9181 13.553C21.2647 13.553 21.5464 13.4577 21.7631 13.267C21.9797 13.0677 22.0881 12.8033 22.0881 12.474C22.0881 12.1447 21.9797 11.8847 21.7631 11.694ZM19.8391 17.167C20.1164 17.3837 20.4761 17.492 20.9181 17.492C21.3601 17.492 21.7154 17.3837 21.9841 17.167C22.2614 16.9417 22.4001 16.6297 22.4001 16.231C22.4001 15.841 22.2614 15.5377 21.9841 15.321C21.7154 15.0957 21.3601 14.983 20.9181 14.983C20.4761 14.983 20.1164 15.0957 19.8391 15.321C19.5704 15.5377 19.4361 15.841 19.4361 16.231C19.4361 16.6297 19.5704 16.9417 19.8391 17.167ZM28.7097 19.182C27.5744 19.182 26.6817 18.753 26.0317 17.895C25.3904 17.0283 25.0697 15.88 25.0697 14.45C25.0697 13.02 25.3904 11.876 26.0317 11.018C26.6817 10.1513 27.5744 9.718 28.7097 9.718C29.8537 9.718 30.7464 10.1513 31.3877 11.018C32.0291 11.876 32.3497 13.02 32.3497 14.45C32.3497 15.88 32.0291 17.0283 31.3877 17.895C30.7464 18.753 29.8537 19.182 28.7097 19.182ZM27.3317 16.673C27.6437 17.1757 28.1031 17.427 28.7097 17.427C29.3164 17.427 29.7757 17.1713 30.0877 16.66C30.4084 16.1487 30.5687 15.412 30.5687 14.45C30.5687 13.4793 30.4084 12.7383 30.0877 12.227C29.7757 11.7157 29.3164 11.46 28.7097 11.46C28.1031 11.46 27.6437 11.7157 27.3317 12.227C27.0197 12.7383 26.8637 13.4793 26.8637 14.45C26.8637 15.4207 27.0197 16.1617 27.3317 16.673ZM40.7592 19H38.6922L35.4422 14.736V19H33.6482V9.9H35.4422V13.917L38.5622 9.9H40.6292L37.2622 14.32L40.7592 19Z" fill="white"/>
</svg>
