<svg width="55" height="30" viewBox="0 0 55 30" fill="none" xmlns="http://www.w3.org/2000/svg">
<rect x="0.5" width="54" height="30" rx="10" fill="#F49229"/>
<path d="M20.1949 15.789V17.453H19.2199V19H17.4129V17.453H13.1099V15.789L16.1389 9.9H18.0629L15.0469 15.789H17.4129V13.631H19.2199V15.789H20.1949ZM27.8629 15.789V17.453H26.8879V19H25.0809V17.453H20.7779V15.789L23.8069 9.9H25.7309L22.7149 15.789H25.0809V13.631H26.8879V15.789H27.8629ZM27.961 9.9H33.837V11.421L30.756 19H28.858L31.848 11.616H27.961V9.9ZM42.121 19H40.054L36.804 14.736V19H35.01V9.9H36.804V13.917L39.924 9.9H41.991L38.624 14.32L42.121 19Z" fill="white"/>
</svg>
