<svg width="54" height="30" viewBox="0 0 54 30" fill="none" xmlns="http://www.w3.org/2000/svg">
<rect width="54" height="30" rx="10" fill="#30B490"/>
<path d="M16.1229 13.215C16.9982 13.215 17.7349 13.4793 18.3329 14.008C18.9309 14.528 19.2299 15.256 19.2299 16.192C19.2299 17.128 18.9136 17.8603 18.2809 18.389C17.6569 18.9177 16.8899 19.182 15.9799 19.182C15.2432 19.182 14.5932 19.0173 14.0299 18.688C13.4666 18.3587 13.0592 17.8733 12.8079 17.232L14.3419 16.335C14.5672 17.063 15.1132 17.427 15.9799 17.427C16.4392 17.427 16.7946 17.3187 17.0459 17.102C17.3059 16.8767 17.4359 16.5733 17.4359 16.192C17.4359 15.8193 17.3102 15.5203 17.0589 15.295C16.8076 15.0697 16.4652 14.957 16.0319 14.957H13.2759L13.6399 9.9H18.8009V11.577H15.3039L15.1869 13.215H16.1229ZM24.067 13.592C24.6824 13.774 25.1807 14.0947 25.562 14.554C25.952 15.0047 26.147 15.5507 26.147 16.192C26.147 17.128 25.8307 17.8603 25.198 18.389C24.574 18.9177 23.807 19.182 22.897 19.182C22.1864 19.182 21.5494 19.0217 20.986 18.701C20.4314 18.3717 20.0284 17.8907 19.777 17.258L21.311 16.374C21.5364 17.076 22.065 17.427 22.897 17.427C23.3564 17.427 23.7117 17.3187 23.963 17.102C24.223 16.8767 24.353 16.5733 24.353 16.192C24.353 15.8193 24.223 15.5203 23.963 15.295C23.7117 15.0697 23.3564 14.957 22.897 14.957H22.507L21.818 13.917L23.612 11.577H20.05V9.9H25.77V11.382L24.067 13.592ZM33.2235 12.877C33.2235 13.579 33.0415 14.1943 32.6775 14.723H32.6905L29.8565 19H27.8025L29.8305 16.036C28.8858 16.0187 28.1145 15.7197 27.5165 15.139C26.9272 14.5497 26.6325 13.7957 26.6325 12.877C26.6325 11.9497 26.9358 11.1913 27.5425 10.602C28.1578 10.0127 28.9508 9.718 29.9215 9.718C30.9008 9.718 31.6938 10.0127 32.3005 10.602C32.9158 11.1827 33.2235 11.941 33.2235 12.877ZM28.4135 12.877C28.4135 13.3277 28.5565 13.6873 28.8425 13.956C29.1372 14.2247 29.4968 14.359 29.9215 14.359C30.3635 14.359 30.7275 14.2247 31.0135 13.956C31.2995 13.6873 31.4425 13.3277 31.4425 12.877C31.4425 12.4263 31.2995 12.071 31.0135 11.811C30.7275 11.5423 30.3635 11.408 29.9215 11.408C29.4968 11.408 29.1372 11.5423 28.8425 11.811C28.5565 12.0797 28.4135 12.435 28.4135 12.877ZM41.475 19H39.408L36.158 14.736V19H34.364V9.9H36.158V13.917L39.278 9.9H41.345L37.978 14.32L41.475 19Z" fill="white"/>
</svg>
