<svg width="55" height="30" viewBox="0 0 55 30" fill="none" xmlns="http://www.w3.org/2000/svg">
<rect x="0.5" width="54" height="30" rx="10" fill="#FF3F4C"/>
<path d="M12.8218 9.9H18.6978V11.421L15.6168 19H13.7188L16.7088 11.616H12.8218V9.9ZM22.867 19.182C21.7316 19.182 20.839 18.753 20.189 17.895C19.5476 17.0283 19.227 15.88 19.227 14.45C19.227 13.02 19.5476 11.876 20.189 11.018C20.839 10.1513 21.7316 9.718 22.867 9.718C24.011 9.718 24.9036 10.1513 25.545 11.018C26.1863 11.876 26.507 13.02 26.507 14.45C26.507 15.88 26.1863 17.0283 25.545 17.895C24.9036 18.753 24.011 19.182 22.867 19.182ZM21.489 16.673C21.801 17.1757 22.2603 17.427 22.867 17.427C23.4736 17.427 23.933 17.1713 24.245 16.66C24.5656 16.1487 24.726 15.412 24.726 14.45C24.726 13.4793 24.5656 12.7383 24.245 12.227C23.933 11.7157 23.4736 11.46 22.867 11.46C22.2603 11.46 21.801 11.7157 21.489 12.227C21.177 12.7383 21.021 13.4793 21.021 14.45C21.021 15.4207 21.177 16.1617 21.489 16.673ZM32.6544 14.268C33.4951 14.7707 33.9154 15.503 33.9154 16.465C33.9154 17.3057 33.6208 17.9687 33.0314 18.454C32.4508 18.9393 31.6578 19.182 30.6524 19.182C29.6384 19.182 28.8411 18.9393 28.2604 18.454C27.6798 17.9687 27.3894 17.3057 27.3894 16.465C27.3894 15.503 27.8054 14.7707 28.6374 14.268C28.0048 13.8087 27.6884 13.1803 27.6884 12.383C27.6884 11.5423 27.9701 10.888 28.5334 10.42C29.1054 9.952 29.8118 9.718 30.6524 9.718C31.4931 9.718 32.1951 9.952 32.7584 10.42C33.3218 10.888 33.6034 11.5423 33.6034 12.383C33.6034 13.189 33.2871 13.8173 32.6544 14.268ZM31.4974 11.694C31.2808 11.5033 30.9991 11.408 30.6524 11.408C30.3058 11.408 30.0241 11.5033 29.8074 11.694C29.5908 11.8847 29.4824 12.1447 29.4824 12.474C29.4824 12.8033 29.5908 13.0677 29.8074 13.267C30.0241 13.4577 30.3058 13.553 30.6524 13.553C30.9991 13.553 31.2808 13.4577 31.4974 13.267C31.7141 13.0677 31.8224 12.8033 31.8224 12.474C31.8224 12.1447 31.7141 11.8847 31.4974 11.694ZM29.5734 17.167C29.8508 17.3837 30.2104 17.492 30.6524 17.492C31.0944 17.492 31.4498 17.3837 31.7184 17.167C31.9958 16.9417 32.1344 16.6297 32.1344 16.231C32.1344 15.841 31.9958 15.5377 31.7184 15.321C31.4498 15.0957 31.0944 14.983 30.6524 14.983C30.2104 14.983 29.8508 15.0957 29.5734 15.321C29.3048 15.5377 29.1704 15.841 29.1704 16.231C29.1704 16.6297 29.3048 16.9417 29.5734 17.167ZM42.3051 19H40.2381L36.9881 14.736V19H35.1941V9.9H36.9881V13.917L40.1081 9.9H42.1751L38.8081 14.32L42.3051 19Z" fill="white"/>
</svg>
