<svg width="315" height="50" viewBox="0 0 315 50" fill="none" xmlns="http://www.w3.org/2000/svg">
<rect width="315" height="50" rx="7" fill="#0071FF"/>
<path d="M101.11 30.18C100.45 30.18 99.81 30.055 99.19 29.805C98.58 29.555 98.04 29.2 97.57 28.74L98.59 27.555C98.94 27.885 99.34 28.155 99.79 28.365C100.24 28.565 100.69 28.665 101.14 28.665C101.7 28.665 102.125 28.55 102.415 28.32C102.705 28.09 102.85 27.785 102.85 27.405C102.85 27.205 102.81 27.035 102.73 26.895C102.66 26.755 102.555 26.635 102.415 26.535C102.285 26.425 102.125 26.325 101.935 26.235C101.755 26.145 101.555 26.055 101.335 25.965L99.985 25.38C99.745 25.28 99.505 25.155 99.265 25.005C99.035 24.855 98.825 24.675 98.635 24.465C98.445 24.255 98.29 24.01 98.17 23.73C98.06 23.45 98.005 23.13 98.005 22.77C98.005 22.38 98.085 22.02 98.245 21.69C98.415 21.35 98.645 21.055 98.935 20.805C99.225 20.555 99.57 20.36 99.97 20.22C100.38 20.08 100.825 20.01 101.305 20.01C101.875 20.01 102.425 20.125 102.955 20.355C103.485 20.575 103.94 20.875 104.32 21.255L103.435 22.365C103.115 22.105 102.785 21.9 102.445 21.75C102.105 21.6 101.725 21.525 101.305 21.525C100.835 21.525 100.46 21.63 100.18 21.84C99.9 22.04 99.76 22.32 99.76 22.68C99.76 22.87 99.8 23.035 99.88 23.175C99.97 23.305 100.085 23.425 100.225 23.535C100.375 23.635 100.545 23.73 100.735 23.82C100.925 23.9 101.12 23.98 101.32 24.06L102.655 24.615C102.945 24.735 103.21 24.875 103.45 25.035C103.69 25.195 103.895 25.38 104.065 25.59C104.245 25.8 104.385 26.045 104.485 26.325C104.585 26.595 104.635 26.91 104.635 27.27C104.635 27.67 104.555 28.045 104.395 28.395C104.235 28.745 104 29.055 103.69 29.325C103.39 29.585 103.02 29.795 102.58 29.955C102.15 30.105 101.66 30.18 101.11 30.18ZM109.719 30.18C109.209 30.18 108.734 30.095 108.294 29.925C107.854 29.745 107.469 29.49 107.139 29.16C106.809 28.83 106.549 28.43 106.359 27.96C106.179 27.48 106.089 26.935 106.089 26.325C106.089 25.725 106.184 25.185 106.374 24.705C106.564 24.225 106.814 23.82 107.124 23.49C107.444 23.16 107.809 22.905 108.219 22.725C108.629 22.545 109.049 22.455 109.479 22.455C109.979 22.455 110.419 22.54 110.799 22.71C111.179 22.88 111.494 23.12 111.744 23.43C112.004 23.74 112.199 24.11 112.329 24.54C112.459 24.97 112.524 25.44 112.524 25.95C112.524 26.12 112.514 26.28 112.494 26.43C112.484 26.58 112.469 26.7 112.449 26.79H107.769C107.849 27.45 108.079 27.96 108.459 28.32C108.849 28.67 109.344 28.845 109.944 28.845C110.264 28.845 110.559 28.8 110.829 28.71C111.109 28.61 111.384 28.475 111.654 28.305L112.239 29.385C111.889 29.615 111.499 29.805 111.069 29.955C110.639 30.105 110.189 30.18 109.719 30.18ZM107.754 25.62H111.024C111.024 25.05 110.899 24.605 110.649 24.285C110.409 23.955 110.034 23.79 109.524 23.79C109.084 23.79 108.699 23.945 108.369 24.255C108.039 24.565 107.834 25.02 107.754 25.62ZM117.621 30.18C117.111 30.18 116.636 30.095 116.196 29.925C115.756 29.745 115.371 29.49 115.041 29.16C114.711 28.83 114.451 28.43 114.261 27.96C114.081 27.48 113.991 26.935 113.991 26.325C113.991 25.725 114.086 25.185 114.276 24.705C114.466 24.225 114.716 23.82 115.026 23.49C115.346 23.16 115.711 22.905 116.121 22.725C116.531 22.545 116.951 22.455 117.381 22.455C117.881 22.455 118.321 22.54 118.701 22.71C119.081 22.88 119.396 23.12 119.646 23.43C119.906 23.74 120.101 24.11 120.231 24.54C120.361 24.97 120.426 25.44 120.426 25.95C120.426 26.12 120.416 26.28 120.396 26.43C120.386 26.58 120.371 26.7 120.351 26.79H115.671C115.751 27.45 115.981 27.96 116.361 28.32C116.751 28.67 117.246 28.845 117.846 28.845C118.166 28.845 118.461 28.8 118.731 28.71C119.011 28.61 119.286 28.475 119.556 28.305L120.141 29.385C119.791 29.615 119.401 29.805 118.971 29.955C118.541 30.105 118.091 30.18 117.621 30.18ZM115.656 25.62H118.926C118.926 25.05 118.801 24.605 118.551 24.285C118.311 23.955 117.936 23.79 117.426 23.79C116.986 23.79 116.601 23.945 116.271 24.255C115.941 24.565 115.736 25.02 115.656 25.62ZM128.272 30.18C127.842 30.18 127.477 30.115 127.177 29.985C126.887 29.855 126.647 29.675 126.457 29.445C126.277 29.205 126.142 28.925 126.052 28.605C125.972 28.275 125.932 27.91 125.932 27.51V24H124.882V22.71L126.022 22.635L126.232 20.625H127.672V22.635H129.547V24H127.672V27.51C127.672 28.37 128.017 28.8 128.707 28.8C128.837 28.8 128.967 28.785 129.097 28.755C129.237 28.725 129.362 28.685 129.472 28.635L129.772 29.91C129.572 29.98 129.342 30.04 129.082 30.09C128.832 30.15 128.562 30.18 128.272 30.18ZM131.397 30V19.41H133.122V22.14L133.062 23.565C133.372 23.275 133.712 23.02 134.082 22.8C134.462 22.57 134.907 22.455 135.417 22.455C136.207 22.455 136.782 22.71 137.142 23.22C137.502 23.72 137.682 24.44 137.682 25.38V30H135.957V25.605C135.957 24.995 135.867 24.565 135.687 24.315C135.507 24.065 135.212 23.94 134.802 23.94C134.482 23.94 134.197 24.02 133.947 24.18C133.707 24.33 133.432 24.555 133.122 24.855V30H131.397ZM143.211 30.18C142.701 30.18 142.226 30.095 141.786 29.925C141.346 29.745 140.961 29.49 140.631 29.16C140.301 28.83 140.041 28.43 139.851 27.96C139.671 27.48 139.581 26.935 139.581 26.325C139.581 25.725 139.676 25.185 139.866 24.705C140.056 24.225 140.306 23.82 140.616 23.49C140.936 23.16 141.301 22.905 141.711 22.725C142.121 22.545 142.541 22.455 142.971 22.455C143.471 22.455 143.911 22.54 144.291 22.71C144.671 22.88 144.986 23.12 145.236 23.43C145.496 23.74 145.691 24.11 145.821 24.54C145.951 24.97 146.016 25.44 146.016 25.95C146.016 26.12 146.006 26.28 145.986 26.43C145.976 26.58 145.961 26.7 145.941 26.79H141.261C141.341 27.45 141.571 27.96 141.951 28.32C142.341 28.67 142.836 28.845 143.436 28.845C143.756 28.845 144.051 28.8 144.321 28.71C144.601 28.61 144.876 28.475 145.146 28.305L145.731 29.385C145.381 29.615 144.991 29.805 144.561 29.955C144.131 30.105 143.681 30.18 143.211 30.18ZM141.246 25.62H144.516C144.516 25.05 144.391 24.605 144.141 24.285C143.901 23.955 143.526 23.79 143.016 23.79C142.576 23.79 142.191 23.945 141.861 24.255C141.531 24.565 141.326 25.02 141.246 25.62ZM153.846 30.18C152.916 30.18 152.176 29.845 151.626 29.175C151.086 28.495 150.816 27.545 150.816 26.325C150.816 25.725 150.901 25.185 151.071 24.705C151.251 24.225 151.486 23.82 151.776 23.49C152.066 23.16 152.396 22.905 152.766 22.725C153.146 22.545 153.536 22.455 153.936 22.455C154.356 22.455 154.711 22.53 155.001 22.68C155.291 22.82 155.581 23.015 155.871 23.265L155.811 22.08V19.41H157.536V30H156.111L155.991 29.205H155.931C155.661 29.475 155.346 29.705 154.986 29.895C154.626 30.085 154.246 30.18 153.846 30.18ZM154.266 28.755C154.816 28.755 155.331 28.48 155.811 27.93V24.495C155.551 24.265 155.296 24.105 155.046 24.015C154.806 23.925 154.561 23.88 154.311 23.88C153.831 23.88 153.426 24.09 153.096 24.51C152.766 24.93 152.601 25.53 152.601 26.31C152.601 27.11 152.741 27.72 153.021 28.14C153.311 28.55 153.726 28.755 154.266 28.755ZM160.033 30V22.635H161.758V30H160.033ZM160.903 21.345C160.593 21.345 160.338 21.255 160.138 21.075C159.938 20.895 159.838 20.66 159.838 20.37C159.838 20.08 159.938 19.845 160.138 19.665C160.338 19.475 160.593 19.38 160.903 19.38C161.213 19.38 161.468 19.475 161.668 19.665C161.868 19.845 161.968 20.08 161.968 20.37C161.968 20.66 161.868 20.895 161.668 21.075C161.468 21.255 161.213 21.345 160.903 21.345ZM169.074 30V24H166.284V30H164.559V24H163.569V22.71L164.559 22.635V21.99C164.559 21.61 164.609 21.26 164.709 20.94C164.809 20.62 164.959 20.345 165.159 20.115C165.369 19.885 165.634 19.705 165.954 19.575C166.274 19.445 166.659 19.38 167.109 19.38C167.389 19.38 167.654 19.405 167.904 19.455C168.154 19.505 168.369 19.57 168.549 19.65L168.219 20.94C168.079 20.87 167.939 20.82 167.799 20.79C167.659 20.76 167.489 20.745 167.289 20.745C166.979 20.745 166.734 20.85 166.554 21.06C166.374 21.26 166.284 21.57 166.284 21.99V22.635H169.074V21.87C169.074 21.49 169.119 21.14 169.209 20.82C169.299 20.49 169.439 20.21 169.629 19.98C169.829 19.74 170.079 19.555 170.379 19.425C170.689 19.295 171.064 19.23 171.504 19.23C171.774 19.23 172.024 19.255 172.254 19.305C172.484 19.355 172.684 19.415 172.854 19.485L172.524 20.775C172.264 20.655 171.999 20.595 171.729 20.595C171.109 20.595 170.799 21.01 170.799 21.84V22.635H172.239V24H170.799V30H169.074ZM176.835 30.18C176.325 30.18 175.85 30.095 175.41 29.925C174.97 29.745 174.585 29.49 174.255 29.16C173.925 28.83 173.665 28.43 173.475 27.96C173.295 27.48 173.205 26.935 173.205 26.325C173.205 25.725 173.3 25.185 173.49 24.705C173.68 24.225 173.93 23.82 174.24 23.49C174.56 23.16 174.925 22.905 175.335 22.725C175.745 22.545 176.165 22.455 176.595 22.455C177.095 22.455 177.535 22.54 177.915 22.71C178.295 22.88 178.61 23.12 178.86 23.43C179.12 23.74 179.315 24.11 179.445 24.54C179.575 24.97 179.64 25.44 179.64 25.95C179.64 26.12 179.63 26.28 179.61 26.43C179.6 26.58 179.585 26.7 179.565 26.79H174.885C174.965 27.45 175.195 27.96 175.575 28.32C175.965 28.67 176.46 28.845 177.06 28.845C177.38 28.845 177.675 28.8 177.945 28.71C178.225 28.61 178.5 28.475 178.77 28.305L179.355 29.385C179.005 29.615 178.615 29.805 178.185 29.955C177.755 30.105 177.305 30.18 176.835 30.18ZM174.87 25.62H178.14C178.14 25.05 178.015 24.605 177.765 24.285C177.525 23.955 177.15 23.79 176.64 23.79C176.2 23.79 175.815 23.945 175.485 24.255C175.155 24.565 174.95 25.02 174.87 25.62ZM181.588 30V22.635H183.013L183.133 23.94H183.193C183.453 23.46 183.768 23.095 184.138 22.845C184.508 22.585 184.888 22.455 185.278 22.455C185.628 22.455 185.908 22.505 186.118 22.605L185.818 24.105C185.688 24.065 185.568 24.035 185.458 24.015C185.348 23.995 185.213 23.985 185.053 23.985C184.763 23.985 184.458 24.1 184.138 24.33C183.818 24.55 183.543 24.94 183.313 25.5V30H181.588ZM190.487 30.18C189.977 30.18 189.502 30.095 189.062 29.925C188.622 29.745 188.237 29.49 187.907 29.16C187.577 28.83 187.317 28.43 187.127 27.96C186.947 27.48 186.857 26.935 186.857 26.325C186.857 25.725 186.952 25.185 187.142 24.705C187.332 24.225 187.582 23.82 187.892 23.49C188.212 23.16 188.577 22.905 188.987 22.725C189.397 22.545 189.817 22.455 190.247 22.455C190.747 22.455 191.187 22.54 191.567 22.71C191.947 22.88 192.262 23.12 192.512 23.43C192.772 23.74 192.967 24.11 193.097 24.54C193.227 24.97 193.292 25.44 193.292 25.95C193.292 26.12 193.282 26.28 193.262 26.43C193.252 26.58 193.237 26.7 193.217 26.79H188.537C188.617 27.45 188.847 27.96 189.227 28.32C189.617 28.67 190.112 28.845 190.712 28.845C191.032 28.845 191.327 28.8 191.597 28.71C191.877 28.61 192.152 28.475 192.422 28.305L193.007 29.385C192.657 29.615 192.267 29.805 191.837 29.955C191.407 30.105 190.957 30.18 190.487 30.18ZM188.522 25.62H191.792C191.792 25.05 191.667 24.605 191.417 24.285C191.177 23.955 190.802 23.79 190.292 23.79C189.852 23.79 189.467 23.945 189.137 24.255C188.807 24.565 188.602 25.02 188.522 25.62ZM195.239 30V22.635H196.664L196.784 23.625H196.844C197.174 23.305 197.529 23.03 197.909 22.8C198.299 22.57 198.749 22.455 199.259 22.455C200.049 22.455 200.624 22.71 200.984 23.22C201.344 23.72 201.524 24.44 201.524 25.38V30H199.799V25.605C199.799 24.995 199.709 24.565 199.529 24.315C199.349 24.065 199.054 23.94 198.644 23.94C198.324 23.94 198.039 24.02 197.789 24.18C197.549 24.33 197.274 24.555 196.964 24.855V30H195.239ZM207.008 30.18C206.508 30.18 206.038 30.095 205.598 29.925C205.168 29.755 204.793 29.505 204.473 29.175C204.153 28.845 203.903 28.44 203.723 27.96C203.543 27.48 203.453 26.935 203.453 26.325C203.453 25.715 203.553 25.17 203.753 24.69C203.953 24.21 204.223 23.805 204.563 23.475C204.903 23.145 205.293 22.895 205.733 22.725C206.183 22.545 206.653 22.455 207.143 22.455C207.623 22.455 208.033 22.535 208.373 22.695C208.723 22.855 209.033 23.05 209.303 23.28L208.463 24.405C208.263 24.235 208.063 24.105 207.863 24.015C207.673 23.915 207.463 23.865 207.233 23.865C206.633 23.865 206.148 24.09 205.778 24.54C205.408 24.98 205.223 25.575 205.223 26.325C205.223 27.065 205.403 27.66 205.763 28.11C206.133 28.55 206.608 28.77 207.188 28.77C207.478 28.77 207.748 28.71 207.998 28.59C208.258 28.46 208.493 28.31 208.703 28.14L209.408 29.28C209.058 29.58 208.673 29.805 208.253 29.955C207.843 30.105 207.428 30.18 207.008 30.18ZM213.945 30.18C213.435 30.18 212.96 30.095 212.52 29.925C212.08 29.745 211.695 29.49 211.365 29.16C211.035 28.83 210.775 28.43 210.585 27.96C210.405 27.48 210.315 26.935 210.315 26.325C210.315 25.725 210.41 25.185 210.6 24.705C210.79 24.225 211.04 23.82 211.35 23.49C211.67 23.16 212.035 22.905 212.445 22.725C212.855 22.545 213.275 22.455 213.705 22.455C214.205 22.455 214.645 22.54 215.025 22.71C215.405 22.88 215.72 23.12 215.97 23.43C216.23 23.74 216.425 24.11 216.555 24.54C216.685 24.97 216.75 25.44 216.75 25.95C216.75 26.12 216.74 26.28 216.72 26.43C216.71 26.58 216.695 26.7 216.675 26.79H211.995C212.075 27.45 212.305 27.96 212.685 28.32C213.075 28.67 213.57 28.845 214.17 28.845C214.49 28.845 214.785 28.8 215.055 28.71C215.335 28.61 215.61 28.475 215.88 28.305L216.465 29.385C216.115 29.615 215.725 29.805 215.295 29.955C214.865 30.105 214.415 30.18 213.945 30.18ZM211.98 25.62H215.25C215.25 25.05 215.125 24.605 214.875 24.285C214.635 23.955 214.26 23.79 213.75 23.79C213.31 23.79 212.925 23.945 212.595 24.255C212.265 24.565 212.06 25.02 211.98 25.62Z" fill="white"/>
</svg>
