<svg width="35" height="30" viewBox="0 0 35 30" fill="none" xmlns="http://www.w3.org/2000/svg">
<path fill-rule="evenodd" clip-rule="evenodd" d="M5.18518 25.052C2.32149 25.052 0 22.7674 0 19.9492V5.10279C0 2.2846 2.32149 0 5.18518 0H29.8148C32.6785 0 35 2.2846 35 5.10279V19.9492C35 22.7674 32.6785 25.052 29.8148 25.052H24.4072C23.7196 25.052 23.0602 25.3208 22.574 25.7993L18.8749 29.4395C18.1156 30.1868 16.8844 30.1868 16.1251 29.4395L12.426 25.7993C11.9398 25.3208 11.2804 25.052 10.5928 25.052H5.18518Z" fill="#616B75"/>
<path d="M17 19C20.3137 19 23 16.3137 23 13C23 9.68629 20.3137 7 17 7C13.6863 7 11 9.68629 11 13C11 16.3137 13.6863 19 17 19Z" fill="white"/>
<path fill-rule="evenodd" clip-rule="evenodd" d="M18 17.4129L24 19L21.4233 14L18 17.4129Z" fill="white"/>
</svg>
