<svg width="35" height="30" viewBox="0 0 35 30" fill="none" xmlns="http://www.w3.org/2000/svg">
<path fill-rule="evenodd" clip-rule="evenodd" d="M5.18518 25.052C2.32149 25.052 0 22.7674 0 19.9492V5.10279C0 2.2846 2.32149 0 5.18518 0H29.8148C32.6785 0 35 2.2846 35 5.10279V19.9492C35 22.7674 32.6785 25.052 29.8148 25.052H24.4072C23.7196 25.052 23.0602 25.3208 22.574 25.7993L18.8749 29.4395C18.1156 30.1868 16.8844 30.1868 16.1251 29.4395L12.426 25.7993C11.9398 25.3208 11.2804 25.052 10.5928 25.052H5.18518Z" fill="#616B75"/>
<path fill-rule="evenodd" clip-rule="evenodd" d="M16.6335 19.782C12.6778 17.3972 11.1905 15.4568 10.3882 13.66C9.56168 11.8087 10.0111 9.56254 12.16 8.36179C13.5927 7.56129 15.206 8.08917 17 9.94543C18.794 8.08917 20.4073 7.56129 21.84 8.36179C23.9889 9.56254 24.4383 11.8087 23.6118 13.66C22.7852 15.5112 21.2314 17.5149 17 20L16.6335 19.782Z" fill="white"/>
</svg>
