<svg width="62" height="19" viewBox="0 0 62 19" fill="none" xmlns="http://www.w3.org/2000/svg">
<path d="M3.96443 4.73228L6.34835 12.9019L8.518 5.30818C8.75014 4.51353 8.91978 3.97335 9.02693 3.68764C9.143 3.393 9.35282 3.11621 9.65639 2.85728C9.96889 2.58943 10.393 2.4555 10.9287 2.4555C11.4734 2.4555 11.8975 2.58943 12.201 2.85728C12.5135 3.11621 12.7323 3.40193 12.8573 3.71443C12.9823 4.018 13.1564 4.54925 13.3796 5.30818L15.5492 12.9019L17.96 4.73228C18.1207 4.143 18.2501 3.71889 18.3484 3.45996C18.4466 3.1921 18.6117 2.95996 18.8439 2.76353C19.076 2.55818 19.4109 2.4555 19.8484 2.4555C20.2859 2.4555 20.6653 2.60728 20.9867 2.91085C21.3082 3.21443 21.4689 3.57157 21.4689 3.98228C21.4689 4.35728 21.3305 4.92425 21.0537 5.68318L18.0671 14.4421C17.8082 15.1832 17.6073 15.7189 17.4644 16.0492C17.3216 16.3796 17.0939 16.6742 16.7814 16.9332C16.4778 17.1921 16.0582 17.3216 15.5225 17.3216C14.9689 17.3216 14.5314 17.1832 14.21 16.9064C13.8975 16.6296 13.6653 16.2903 13.5135 15.8885C13.3617 15.4867 13.1966 14.9644 13.018 14.3216L10.9287 7.19657L8.90639 14.3216C8.63853 15.3126 8.34835 16.0626 8.03585 16.5716C7.72335 17.0716 7.17425 17.3216 6.38853 17.3216C5.98675 17.3216 5.643 17.2412 5.35728 17.0805C5.0805 16.9287 4.84835 16.71 4.66085 16.4242C4.47335 16.1296 4.30818 15.7859 4.16532 15.393C4.02246 14.9912 3.91085 14.6742 3.8305 14.4421L0.870675 5.68318C0.576032 4.86175 0.428711 4.29478 0.428711 3.98228C0.428711 3.58943 0.584961 3.23675 0.897461 2.92425C1.20996 2.61175 1.59389 2.4555 2.04925 2.4555C2.65639 2.4555 3.0671 2.6296 3.28139 2.97782C3.49568 3.3171 3.72335 3.90193 3.96443 4.73228Z" fill="#292C30"/>
<path d="M33.8305 10.7859H26.6787C26.6876 11.6162 26.8528 12.3484 27.1742 12.9823C27.5046 13.6162 27.9376 14.0939 28.4734 14.4153C29.018 14.7367 29.6162 14.8975 30.268 14.8975C30.7055 14.8975 31.1028 14.8484 31.46 14.7501C31.826 14.643 32.1787 14.4823 32.518 14.268C32.8573 14.0448 33.1698 13.8082 33.4555 13.5582C33.7412 13.3082 34.1117 12.9689 34.5671 12.5403C34.7546 12.3796 35.0225 12.2992 35.3707 12.2992C35.7457 12.2992 36.0492 12.4019 36.2814 12.6073C36.5135 12.8126 36.6296 13.1028 36.6296 13.4778C36.6296 13.8082 36.5001 14.1966 36.2412 14.643C35.9823 15.0805 35.5894 15.5046 35.0626 15.9153C34.5448 16.3171 33.8885 16.6519 33.0939 16.9198C32.3082 17.1876 31.4019 17.3216 30.3751 17.3216C28.0269 17.3216 26.201 16.6519 24.8975 15.3126C23.5939 13.9734 22.9421 12.1564 22.9421 9.86175C22.9421 8.78139 23.1028 7.78139 23.4242 6.86175C23.7457 5.93318 24.2144 5.13853 24.8305 4.47782C25.4466 3.8171 26.2055 3.31264 27.1073 2.96443C28.0091 2.60728 29.0091 2.42871 30.1073 2.42871C31.5359 2.42871 32.7591 2.73228 33.7769 3.33943C34.8037 3.93764 35.5716 4.71443 36.0805 5.66978C36.5894 6.62514 36.8439 7.59835 36.8439 8.58943C36.8439 9.50907 36.5805 10.1073 36.0537 10.3841C35.5269 10.6519 34.7859 10.7859 33.8305 10.7859ZM26.6787 8.70996H33.3082C33.2189 7.45996 32.8796 6.52693 32.2903 5.91085C31.71 5.28585 30.9421 4.97335 29.9867 4.97335C29.076 4.97335 28.326 5.29032 27.7367 5.92425C27.1564 6.54925 26.8037 7.47782 26.6787 8.70996Z" fill="#292C30"/>
<path d="M58.805 3.81028C58.3673 3.37228 57.8475 3.02483 57.2753 2.78778C56.7032 2.55072 56.09 2.42871 55.4708 2.42871C54.8515 2.42871 54.2383 2.55072 53.6662 2.78778C53.0941 3.02483 52.5743 3.37228 52.1365 3.81028L51.2279 4.71885L50.3193 3.81028C49.435 2.92597 48.2356 2.42917 46.985 2.42917C45.7344 2.42917 44.5351 2.92597 43.6508 3.81028C42.7665 4.69458 42.2697 5.89396 42.2697 7.14456C42.2697 8.39516 42.7665 9.59454 43.6508 10.4788L44.5593 11.3874L49.8137 16.6418C50.5947 17.4228 51.8611 17.4228 52.6421 16.6418L57.8965 11.3874L58.805 10.4788C59.243 10.0411 59.5905 9.52126 59.8275 8.94915C60.0646 8.37704 60.1866 7.76384 60.1866 7.14456C60.1866 6.52529 60.0646 5.91208 59.8275 5.33997C59.5905 4.76786 59.243 4.24807 58.805 3.81028Z" stroke="#292C30" stroke-width="3" stroke-linecap="round"/>
</svg>
