<svg width="56" height="36" viewBox="0 0 56 36" fill="none" xmlns="http://www.w3.org/2000/svg">
<rect width="56" height="36" rx="10" fill="url(#paint0_linear)"/>
<path d="M15.868 11.4C17.08 11.4 18.1 11.808 18.928 12.624C19.756 13.44 20.17 14.442 20.17 15.63C20.17 16.818 19.756 17.82 18.928 18.636C18.1 19.452 17.08 19.86 15.868 19.86H13.654V24H11.17V11.4H15.868ZM15.868 17.538C16.396 17.538 16.834 17.358 17.182 16.998C17.53 16.626 17.704 16.17 17.704 15.63C17.704 15.078 17.53 14.622 17.182 14.262C16.834 13.902 16.396 13.722 15.868 13.722H13.654V17.538H15.868ZM28.6992 24L26.1612 19.626H24.2712V24H21.7872V11.4H26.8272C27.9912 11.4 28.9812 11.808 29.7972 12.624C30.6132 13.44 31.0212 14.424 31.0212 15.576C31.0212 16.356 30.7992 17.082 30.3552 17.754C29.9112 18.414 29.3232 18.912 28.5912 19.248L31.3812 24H28.6992ZM24.2712 13.722V17.448H26.8272C27.2952 17.448 27.6972 17.268 28.0332 16.908C28.3692 16.536 28.5372 16.092 28.5372 15.576C28.5372 15.06 28.3692 14.622 28.0332 14.262C27.6972 13.902 27.2952 13.722 26.8272 13.722H24.2712ZM43.3052 22.362C42.0332 23.622 40.4852 24.252 38.6612 24.252C36.8372 24.252 35.2892 23.622 34.0172 22.362C32.7572 21.09 32.1272 19.536 32.1272 17.7C32.1272 15.864 32.7572 14.316 34.0172 13.056C35.2892 11.784 36.8372 11.148 38.6612 11.148C40.4852 11.148 42.0332 11.784 43.3052 13.056C44.5772 14.316 45.2132 15.864 45.2132 17.7C45.2132 19.536 44.5772 21.09 43.3052 22.362ZM35.7632 20.67C36.5432 21.438 37.5092 21.822 38.6612 21.822C39.8132 21.822 40.7792 21.438 41.5592 20.67C42.3392 19.89 42.7292 18.9 42.7292 17.7C42.7292 16.5 42.3392 15.51 41.5592 14.73C40.7792 13.95 39.8132 13.56 38.6612 13.56C37.5092 13.56 36.5432 13.95 35.7632 14.73C34.9832 15.51 34.5932 16.5 34.5932 17.7C34.5932 18.9 34.9832 19.89 35.7632 20.67Z" fill="white"/>
<defs>
<linearGradient id="paint0_linear" x1="0" y1="18" x2="56" y2="18" gradientUnits="userSpaceOnUse">
<stop stop-color="#D7B899"/>
<stop offset="1" stop-color="#A87446"/>
</linearGradient>
</defs>
</svg>
