<svg width="48" height="36" viewBox="0 0 48 36" fill="none" xmlns="http://www.w3.org/2000/svg">
<rect width="48" height="36" rx="10" fill="white"/>
<path d="M14.564 13.2C15.5067 13.2 16.3 13.5173 16.944 14.152C17.588 14.7867 17.91 15.566 17.91 16.49C17.91 17.414 17.588 18.1933 16.944 18.828C16.3 19.4627 15.5067 19.78 14.564 19.78H12.842V23H10.91V13.2H14.564ZM14.564 17.974C14.9747 17.974 15.3153 17.834 15.586 17.554C15.8567 17.2647 15.992 16.91 15.992 16.49C15.992 16.0607 15.8567 15.706 15.586 15.426C15.3153 15.146 14.9747 15.006 14.564 15.006H12.842V17.974H14.564ZM24.5438 23L22.5698 19.598H21.0998V23H19.1678V13.2H23.0878C23.9931 13.2 24.7631 13.5173 25.3978 14.152C26.0325 14.7867 26.3498 15.552 26.3498 16.448C26.3498 17.0547 26.1771 17.6193 25.8318 18.142C25.4865 18.6553 25.0291 19.0427 24.4598 19.304L26.6298 23H24.5438ZM21.0998 15.006V17.904H23.0878C23.4518 17.904 23.7645 17.764 24.0258 17.484C24.2871 17.1947 24.4178 16.8493 24.4178 16.448C24.4178 16.0467 24.2871 15.706 24.0258 15.426C23.7645 15.146 23.4518 15.006 23.0878 15.006H21.0998ZM35.904 21.726C34.9147 22.706 33.7107 23.196 32.292 23.196C30.8734 23.196 29.6694 22.706 28.68 21.726C27.7 20.7367 27.21 19.528 27.21 18.1C27.21 16.672 27.7 15.468 28.68 14.488C29.6694 13.4987 30.8734 13.004 32.292 13.004C33.7107 13.004 34.9147 13.4987 35.904 14.488C36.8934 15.468 37.388 16.672 37.388 18.1C37.388 19.528 36.8934 20.7367 35.904 21.726ZM30.038 20.41C30.6447 21.0073 31.396 21.306 32.292 21.306C33.188 21.306 33.9394 21.0073 34.546 20.41C35.1527 19.8033 35.456 19.0333 35.456 18.1C35.456 17.1667 35.1527 16.3967 34.546 15.79C33.9394 15.1833 33.188 14.88 32.292 14.88C31.396 14.88 30.6447 15.1833 30.038 15.79C29.4314 16.3967 29.128 17.1667 29.128 18.1C29.128 19.0333 29.4314 19.8033 30.038 20.41Z" fill="#292C30"/>
</svg>
