<svg width="7" height="11" viewBox="0 0 7 11" fill="none" xmlns="http://www.w3.org/2000/svg">
    <path d="M3.87127 7.2V6.82857C3.87127 6.44286 4.02841 6.18571 4.3427 5.95714L5.07127 5.45714C5.82841 4.95714 6.62841 4.15714 6.62841 2.95714C6.62841 1.25714 5.42841 0 3.32841 0C1.2427 0 0.1427 1.38571 0.1427 3.05714H2.15699C2.17127 2.45714 2.5427 1.95714 3.29984 1.95714C4.0427 1.95714 4.42841 2.4 4.42841 2.95714C4.42841 3.41429 4.19984 3.71429 3.79984 4.01429L3.01413 4.57143C2.28556 5.07143 1.88556 5.64286 1.88556 6.6V7.2H3.87127ZM2.87127 10.3714C3.59984 10.3714 4.08556 9.88571 4.08556 9.18571C4.08556 8.51429 3.59984 8 2.87127 8C2.19984 8 1.65699 8.51429 1.65699 9.18571C1.65699 9.88571 2.19984 10.3714 2.87127 10.3714Z" fill="white"/>
</svg>
