<svg width="82" height="36" viewBox="0 0 82 36" fill="none" xmlns="http://www.w3.org/2000/svg">
<rect width="82" height="36" rx="10" fill="#3D4045"/>
<path d="M16.286 23L14.312 19.598H12.842V23H10.91V13.2H14.83C15.7353 13.2 16.5053 13.5173 17.14 14.152C17.7747 14.7867 18.092 15.552 18.092 16.448C18.092 17.0547 17.9193 17.6193 17.574 18.142C17.2287 18.6553 16.7713 19.0427 16.202 19.304L18.372 23H16.286ZM12.842 15.006V17.904H14.83C15.194 17.904 15.5067 17.764 15.768 17.484C16.0293 17.1947 16.16 16.8493 16.16 16.448C16.16 16.0467 16.0293 15.706 15.768 15.426C15.5067 15.146 15.194 15.006 14.83 15.006H12.842ZM21.4416 21.152H25.5716V23H19.5096V13.2H25.5016V15.048H21.4416V17.134H25.1516V18.954H21.4416V21.152ZM36.4831 17.736V18.492C36.4831 19.892 36.0351 21.026 35.1391 21.894C34.2431 22.762 33.0857 23.196 31.6671 23.196C30.1551 23.196 28.8997 22.706 27.9011 21.726C26.9117 20.7367 26.4171 19.5327 26.4171 18.114C26.4171 16.686 26.9071 15.4773 27.8871 14.488C28.8764 13.4987 30.0991 13.004 31.5551 13.004C32.4697 13.004 33.3051 13.214 34.0611 13.634C34.8171 14.0447 35.4051 14.5953 35.8251 15.286L34.1731 16.238C33.9397 15.8367 33.5851 15.51 33.1091 15.258C32.6424 15.006 32.1197 14.88 31.5411 14.88C30.6077 14.88 29.8377 15.188 29.2311 15.804C28.6337 16.4107 28.3351 17.1807 28.3351 18.114C28.3351 19.038 28.6384 19.8033 29.2451 20.41C29.8611 21.0073 30.6731 21.306 31.6811 21.306C32.4277 21.306 33.0437 21.1427 33.5291 20.816C34.0237 20.48 34.3597 20.0227 34.5371 19.444H31.5691V17.736H36.4831ZM41.4429 23.196C40.3509 23.196 39.4549 22.888 38.7549 22.272C38.0549 21.656 37.7049 20.83 37.7049 19.794V13.2H39.6229V19.64C39.6229 20.1533 39.7676 20.5593 40.0569 20.858C40.3556 21.1567 40.8176 21.306 41.4429 21.306C42.0682 21.306 42.5256 21.1567 42.8149 20.858C43.1136 20.5593 43.2629 20.1533 43.2629 19.64V13.2H45.1949V19.794C45.1949 20.83 44.8449 21.656 44.1449 22.272C43.4449 22.888 42.5442 23.196 41.4429 23.196ZM48.8674 21.152H52.6054V23H46.9354V13.2H48.8674V21.152ZM60.2764 23L59.6884 21.236H55.7824L55.1944 23H53.1084L56.5384 13.2H58.9324L62.3764 23H60.2764ZM56.3984 19.43H59.0864L57.7424 15.426L56.3984 19.43ZM68.704 23L66.73 19.598H65.26V23H63.328V13.2H67.248C68.1533 13.2 68.9233 13.5173 69.558 14.152C70.1926 14.7867 70.51 15.552 70.51 16.448C70.51 17.0547 70.3373 17.6193 69.992 18.142C69.6466 18.6553 69.1893 19.0427 68.62 19.304L70.79 23H68.704ZM65.26 15.006V17.904H67.248C67.612 17.904 67.9246 17.764 68.186 17.484C68.4473 17.1947 68.578 16.8493 68.578 16.448C68.578 16.0467 68.4473 15.706 68.186 15.426C67.9246 15.146 67.612 15.006 67.248 15.006H65.26Z" fill="white" fill-opacity="0.6"/>
</svg>
